<svg width="100" height="100" viewBox="0 0 100 100" fill="none" xmlns="http://www.w3.org/2000/svg">
<path d="M100 50C100 77.6142 77.6142 100 50 100C22.3858 100 0 77.6142 0 50C0 22.3858 22.3858 0 50 0C77.6142 0 100 22.3858 100 50Z" fill="#FF7246"/>
<path d="M68 25C68.9214 25.1152 68.6623 25.3246 69 26" stroke="#EC663C" stroke-opacity="0.82" stroke-width="20" stroke-linecap="round"/>
<path d="M30 32C29.9051 33.8982 23.9317 55.4886 27 56C30.3541 56.559 41.4391 53.9687 43.2222 57C45.9824 61.6924 38.6302 71 45 71C50.7847 71 62.1328 68.7552 67 72" stroke="#F56D42" stroke-width="12" stroke-linecap="round"/>
</svg>
